/* XPM */
static char *_2f4c555f94e411bcb08fa0292adfe74OCpDh2E3hgXXO6LC[] = {
/* columns rows colors chars-per-pixel */
"64 64 174 2 ",
"   c #000002",
".  c #00000C",
"X  c #030411",
"o  c #0B0613",
"O  c #060B15",
"+  c #0B0B16",
"@  c #0D0E18",
"#  c #071017",
"$  c #081017",
"%  c #0C131A",
"&  c #0E181D",
"*  c #11131C",
"=  c #10191D",
"-  c #121620",
";  c #131C23",
":  c #181A21",
">  c #152326",
",  c #192827",
"<  c #1E2B2B",
"1  c #192728",
"2  c #2C2C2F",
"3  c #223733",
"4  c #233935",
"5  c #293A36",
"6  c #263D39",
"7  c #2C3F3A",
"8  c #3C3F3D",
"9  c #343538",
"0  c #274239",
"q  c #2A443C",
"w  c #2C483D",
"e  c #3E413F",
"r  c #2F4B40",
"t  c #3F4746",
"y  c #335245",
"u  c #3D624F",
"i  c #386750",
"p  c #414341",
"a  c #454845",
"s  c #494B47",
"d  c #444C4E",
"f  c #4B4D49",
"g  c #514948",
"h  c #4D534C",
"j  c #53534E",
"k  c #464E51",
"l  c #4B5254",
"z  c #4F5759",
"x  c #545754",
"c  c #5A5C54",
"v  c #555B59",
"b  c #5E6159",
"n  c #49745D",
"m  c #68685F",
"M  c #66655C",
"N  c #4E7D62",
"B  c #677263",
"V  c #9B6C60",
"C  c #AA7569",
"Z  c #4F8063",
"A  c #538466",
"S  c #548768",
"D  c #568A6B",
"F  c #588D6D",
"G  c #58926F",
"H  c #5C9874",
"J  c #968D7C",
"K  c #98917E",
"L  c #DD8C7A",
"P  c #DC937D",
"I  c #E0927F",
"U  c #68A980",
"Y  c #6FB487",
"T  c #6FB588",
"R  c #70B587",
"E  c #70B788",
"W  c #76BF8E",
"Q  c #78BF8F",
"!  c #77C08F",
"~  c #78C08F",
"^  c #79C290",
"/  c #7DC995",
"(  c #9F9582",
")  c #A29684",
"_  c #A49A86",
"`  c #A99D89",
"'  c #ADA18C",
"]  c #B1A38D",
"[  c #B4A691",
"{  c #B9AA93",
"}  c #B6A891",
"|  c #B8B199",
" . c #A3AAA5",
".. c #A7AEA9",
"X. c #A9AFAA",
"o. c #ACB3AC",
"O. c #B1B6AF",
"+. c #B2B7B0",
"@. c #B4B8B2",
"#. c #DD9681",
"$. c #DD9A83",
"%. c #E09483",
"&. c #E19A88",
"*. c #F09986",
"=. c #DEB89E",
"-. c #D8B49A",
";. c #E1A68E",
":. c #F0A28E",
">. c #E1AA91",
",. c #E3AC9A",
"<. c #E6BA9F",
"1. c #CCBBA4",
"2. c #DFB9A0",
"3. c #E7BDA2",
"4. c #E7B6A0",
"5. c #80CC97",
"6. c #81CE99",
"7. c #83D19A",
"8. c #D5C0A5",
"9. c #DBC3A7",
"0. c #DEC5A9",
"q. c #DAC6AA",
"w. c #DDCBB4",
"e. c #C7C6A7",
"r. c #EBC2A6",
"t. c #E3CAAD",
"y. c #E9CEAF",
"u. c #E0C7AB",
"i. c #EAD0AF",
"p. c #E3D0AF",
"a. c #E2CEB4",
"s. c #EBCFB1",
"d. c #E7D4B3",
"f. c #EDD2B3",
"g. c #E6D4BC",
"h. c #ECD6BC",
"j. c #EED8BF",
"k. c #F0D3B4",
"l. c #F0D6B9",
"z. c #F0DCBD",
"x. c #F0E1BF",
"c. c #C9CFC6",
"v. c #D4D6CE",
"b. c #DFDBCC",
"n. c #DEDED4",
"m. c #C7D6C7",
"M. c #EDDAC1",
"N. c #E4DCCC",
"B. c #F0DCC3",
"V. c #DEE1D5",
"C. c #DBE6D7",
"Z. c #F0E3C0",
"A. c #F0E5C1",
"S. c #F0E3C1",
"D. c #F0E8C4",
"F. c #E1E1D6",
"G. c #EDE4D4",
"H. c #E4E4D9",
"J. c #EAE6DB",
"K. c #E3E9DE",
"L. c #EEE9DD",
"P. c #ECE9DE",
"I. c #F0E6D5",
"U. c #F0E9DE",
"Y. c #F0EADD",
"T. c #EEEBE1",
"R. c #EDEBE2",
"E. c #F0EBE1",
"W. c #F0ECE2",
"Q. c #85be8c",
"!. c #F0ECE3",
"~. c #F0F1E5",
"^. c #F0F1EC",
"/. c #F0F1F1",
/* pixels */
"Q Q Q Q Q Q Q Q ! Q Q Q Q Q Q Q Q Q Q Q Q Q Q Q Q Q Q Q Q Q Q Q Q Q Q Q Q Q Q Q Q Q Q Q Q Q Q Q Q Q Q Q Q Q Q Q Q Q Q Q Q Q Q Q ",
"Q Q Q Q Q Q Q Q Q Q Q Q Q Q Q Q Q Q Q Q Q Q Q Q Q Q Q Q Q Q Q Q Q Q Q Q Q Q Q Q Q Q / / / / ! Q Q Q Q Q Q Q Q Q Q Q Q Q Q Q Q Q ",
"Q Q Q Q Q Q Q Q Q Q Q Q Q Q Q Q Q Q Q Q Q Q Q Q Q Q Q Q Q Q Q Q Q Q Q Q Q Q Q W / 7.u q r y Y Q Q Q Q Q Q Q Q Q Q Q Q Q Q Q Q Q ",
"Q Q Q Q Q Q Q Q Q Q Q Q Q Q Q Q Q Q Q Q Q Q Q Q Q Q Q Q Q Q Q Q Q Q Q Q Q Q / 7.i ,         W 7.Q Q Q Q Q Q Q Q Q Q Q Q Q Q Q Q ",
"Q Q Q Q Q Q Q Q Q Q Q Q Q Q Q Q Q Q Q Q Q Q Q Q Q Q Q Q Q Q Q Q Q Q Q Q Q W N S B g c b c b N Z E Q Q Q Q Q Q Q Q Q Q Q Q Q Q Q ",
"Q Q Q Q Q Q Q Q Q Q Q Q Q Q Q Q Q Q Q Q Q Q Q Q Q Q Q Q Q Q Q Q Q Q Q Q 6./     f.D.z.z.A.l..   Q 7.Q Q Q Q Q Q Q Q Q Q Q Q Q Q ",
"Q Q Q Q Q Q Q Q Q Q Q Q Q Q Q Q Q Q Q Q Q Q Q Q Q Q Q Q Q Q Q Q Q Q Q Q N n c M 0.f.M.M.f.t.m c n N E ! Q Q Q Q Q Q Q Q Q Q Q Q ",
"Q Q Q Q Q Q Q Q Q Q Q Q / / / / Q Q Q Q Q Q Q Q Q Q Q Q Q Q Q Q Q Q ^ W O . s.A.k.f.!.!.f.k.x.k.o . Y ^ Q Q Q Q Q Q Q Q Q Q Q Q ",
"Q Q Q Q Q Q Q Q Q Q Q E F S S D E Q Q Q Q Q Q Q Q Q Q Q Q Q Q Q Q Q Q E & O 8.k.f.k.U.P.M.M.B.w.* # E ^ Q Q Q Q Q Q Q Q Q Q Q Q ",
"Q Q Q Q Q Q Q Q Q Q / ! .     . W 6.Q Q Q Q Q Q Q Q Q Q Q Q Q Q Q Q 5./ & o 9.l.f.k.U.!.Q.R.~.F.* O R ^ Q Q Q Q Q Q Q Q Q Q Q Q ",
"Q Q Q Q Q Q Q Q ! Q S N h f f h A S E Q Q Q Q Q Q Q Q Q Q Q Q Q Q E S N $ @ 8.k.f.k.U.!.E.R.Q.F.- O Y Q Q Q Q Q Q Q Q Q Q Q Q Q ",
"Q Q Q Q Q Q Q Q ~ E O X s.Z.A.f..   W 6.Q Q Q Q Q Q Q Q Q Q Q Q 6.Q       X t.A.f.f.E.Q.!.R.Q.V.O . Q 6.Q Q Q Q Q Q Q Q Q Q Q Q ",
"Q Q Q Q Q Q Q Q ^ E & @ 9.k.3.=.x h A S E Q Q Q Q Q Q Q Q Q Q E F A h f f j J _ t.f.G.I.E.R.Q.F.x h A S Q ! Q Q Q Q Q Q Q Q Q Q ",
"Q Q Q Q Q Q Q Q ^ E % + 0.k.P P x.l..   W 7./ / / / / / / / 6.!     f.Z.A.l..   f.A.k.f.U.!.!.P.A.k.o X R ^ Q Q Q Q Q Q Q Q Q Q ",
"Q Q Q Q Q Q Q Q ^ E % + 0.k.$.#.<.=.c h A A A A A A A A A A A A h x 0.s.3.=.c j J ) s.k.P.!.!.P.l.0.* % R Q Q Q Q Q Q Q Q Q Q Q ",
"Q Q Q Q Q Q Q Q ^ E % + 0.k.$.P L P l.l.X                     . t.Z.l.f.P P z.k.X . 0.l.P.!.!.P.k.0.X . ~ 6.Q Q Q Q Q Q Q Q Q Q ",
"Q Q Q Q Q Q Q Q ^ E % + 0.k.$.#.>.>.s.t.c a f f f f f f f f s j 0.k.r.3.$.$.f.0.* % 9.k.L.!.!.P.B.g.j f A S Q ! Q Q Q Q Q Q Q Q ",
"Q Q Q Q Q Q Q Q ^ W % + 0.k.P P f.l.k.k.z.z.z.z.z.z.z.z.z.z.z.z.k.s.#.P P $.k.u.* @ f.Z.P.Q.E.E.R.R.Z.f.o X R ^ Q Q Q Q Q Q Q Q ",
"Q Q Q Q Q Q Q Q ^ W % + 9.k.>.>.s.k.k.f.f.f.f.f.f.f.f.f.f.f.f.f.k.s.$.#.P $.k.u.* o ( [ N.G.R.E.E.P.l.0.* $ R ^ Q Q Q Q Q Q Q Q ",
"Q Q Q Q Q Q Q Q ^ E % + 0.l.f.k.k.k.k.k.k.k.k.k.k.k.k.k.k.k.k.k.k.s.#.P P #.k.u.* .   . t.Z.P.!.!.P.l.0.* O R ^ Q Q Q Q Q Q Q Q ",
"Q Q Q Q Q Q Q Q ^ E % + 0.l.f.k.k.k.k.k.k.k.k.k.k.k.k.k.k.k.k.k.k.f.>.;.;.>.k.u.* X 3 q K ' J.!.R.P.l.0.* O R ^ Q Q Q Q Q Q Q Q ",
"Q Q Q Q Q Q Q Q ^ E % + 0.l.f.k.k.k.k.k.k.k.k.k.k.k.k.k.k.k.k.k.k.k.k.k.k.k.k.u.* O Q ^ . O n.~.R.P.l.0.* O R ^ Q Q Q Q Q Q Q Q ",
"Q Q Q Q Q Q ! Q Q E & @ 0.l.f.k.f.f.f.k.k.k.k.k.k.k.k.k.f.f.k.k.k.k.k.k.k.f.k.u.* O R E $ * n.Q.R.P.l.0.* O E ^ Q Q Q Q Q Q Q Q ",
"Q Q Q Q Q Q Q Q / ^ O . 9.k.f.k.z.z.k.f.k.k.k.k.k.k.k.k.z.z.k.k.k.k.k.k.k.f.k.u.* O R E O * n.Q.R.P.l.0.* O E ^ Q Q Q Q Q Q Q Q ",
"Q Q Q Q Q Q ! Q G S a a u.k.j.g.` ` s.k.k.k.k.k.k.f.j.g.` ` s.k.k.k.k.k.k.f.k.u.* O R E $ - n.Q.R.P.l.0.* $ R ^ Q Q Q Q Q Q Q Q ",
"Q Q Q Q Q Q ~ E O X t.x.f.f.^.R.O X 9.k.f.k.k.k.k.f.^.R.O X 0.l.f.k.k.k.k.f.k.u.X . Q ^ . X n.~.R.P.Z.f.o X R ^ Q Q Q Q Q Q Q Q ",
"Q Q Q Q Q Q ~ E & @ 9.k.f.s.@. .* * w.B.h.j.M.M.B.h.@. .* * 0.k.f.k.k.k.k.f.k.t.s e S F t l F.Q.!.J.[ _ 7 0 E ~ Q Q Q Q Q Q Q Q ",
"Q Q Q Q Q Q ~ E % + 0.l.l.0.      X n.^.^.^.Q.R.~.F..     X 0.l.k.k.k.k.k.k.k.f.x.f.o O J.^.R.R.~.V.O X Q / Q Q Q Q Q Q Q Q Q Q ",
"Q Q Q Q Q Q ~ E & + -.r.r.2.x k d z n.P.+.O.H.P.!.H.v d d l =.r.r.r.f.k.k.k.k.f.f.9.% % v.R.J.J.Q.F.- $ E ! Q Q Q Q Q Q Q Q Q Q ",
"Q Q Q Q Q Q ^ E O . L *.L &.~.^.^.^./.!..   J./.R.!.^.^.^.~.&.L L %.s.k.k.k.k.f.x.f.% % J./.^.^.~.V.* O R ^ Q Q Q Q Q Q Q Q Q Q ",
"Q Q Q Q Q Q ~ W 0 3 V C L $.H.J.R.H.@.X.k d ..@.J.!.P.P.R.J.&.%.%.&.s.k.k.k.f.y.} ) % @  .+.X.o.P.n.* $ R ^ Q Q Q Q Q Q Q Q Q Q ",
"Q Q Q Q Q Q Q Q / Q X . L :.~.^.~.n.    J.R.    n.~.R.E.!.L.%.L L I s.k.k.f.z.f.X             O R.Q.@ X R ^ Q Q Q Q Q Q Q Q Q Q ",
"Q Q Q Q Q Q Q Q Q E q 5 V C o.@.J.F.k d n.F.d d n.!.R.E.!.P.4.,.,.,.s.f.f.s.{ ` s 8 e 8 p e O % R.n.1 < E ^ Q Q Q Q Q Q Q Q Q Q ",
"Q Q Q Q Q Q Q Q Q Q / Q X     X J./././.^.^././.^.^.!.E.E.!.Q.~.~.Q.z.z.x.k..   y.x.l.z.z.k.: . v.c.* 2 Q Q Q Q Q Q Q Q Q Q Q Q ",
"Q Q Q Q Q Q Q Q Q Q Q E w 4 4 w  .+.o.o.o.o.o.o.o.@.J.!.R.E.E.R.E.J.[ ' ] ` s s u.k.f.f.k.u.: X V.K.1 * Q Q Q Q Q Q Q Q Q Q Q Q ",
"Q Q Q Q Q Q Q Q Q Q Q Q / / 5.W .                 X n.~.R.Q.Q.R.~.n.X     . u.x.f.k.k.f.k.u.o . K.C.; ; Q Q Q Q Q Q Q Q Q Q Q Q ",
"Q Q Q Q Q Q Q Q Q Q Q Q Q Q Q R q 4 6 6 1 - > 9 a.| b.Y.G.I.I.G.Y.N.f e p f 0.k.f.k.k.f.k.t.f t m.C.; ; Q Q Q Q Q Q Q Q Q Q Q Q ",
"Q Q Q Q Q Q Q Q Q Q Q Q Q Q Q Q / / / / / ; & e.d.d.d.k.f.k.k.k.k.k.z.z.z.z.k.k.k.k.k.k.k.f.x.f.o X ; ; Q Q Q Q Q Q Q Q Q Q Q Q ",
"Q Q Q Q Q Q Q Q Q Q Q Q Q Q Q Q Q Q Q Q Q 6 ; y.h.d.f.k.f.k.k.k.k.k.f.f.f.f.k.k.k.k.k.k.k.f.k.0.* O < U Q Q Q Q Q Q Q Q Q Q Q Q ",
"Q Q Q Q Q Q Q Q Q Q Q Q Q Q Q Q Q Q Q Q Q > ; i.d.f.k.k.k.k.k.k.k.k.k.k.k.k.k.k.k.k.k.k.k.f.k.0.* O Y ^ Q Q Q Q Q Q Q Q Q Q Q Q ",
"Q Q Q Q Q Q Q Q Q Q Q Q Q Q Q Q Q Q Q Q Q > ; t.p.k.j.j.j.j.k.k.k.k.k.k.k.k.k.k.k.k.k.k.k.f.k.0.* O Y ! Q Q Q Q Q Q Q Q Q Q Q Q ",
"Q Q Q Q Q Q Q Q Q Q Q Q Q Q Q Q Q Q Q Q ~ ; & q.i.l.P.R.R.R.h.k.k.k.k.k.k.k.k.k.k.k.k.k.k.f.k.0.X . Q / Q Q Q Q Q Q Q Q Q Q Q Q ",
"Q Q Q Q Q Q Q Q Q Q Q Q Q Q Q Q Q Q Q Q ~ ; > t.f.l.P.!.!.U.l.k.k.k.k.k.k.k.k.k.k.k.k.k.k.f.k.u.p 8 F H Q ! Q Q Q Q Q Q Q Q Q Q ",
"Q Q Q Q Q Q Q Q Q Q Q Q Q Q Q Q Q Q Q Q ~ ; > f.y.l.P.!.!.U.l.k.k.k.k.k.k.k.k.k.k.k.k.k.k.k.k.f.z.f.+ O R ^ Q Q Q Q Q Q Q Q Q Q ",
"Q Q Q Q Q Q Q Q Q Q Q Q Q Q Q Q Q Q Q Q ^ ; ; a.0.l.P.E.!.U.l.k.k.k.k.k.k.k.k.k.k.k.k.k.k.k.k.f.k.0.* $ R ~ Q Q Q Q Q Q Q Q Q Q ",
"Q Q Q Q Q Q Q Q Q Q Q Q Q Q Q Q Q Q Q Q ^ > ; 1.0.l.P.Q.!.U.l.k.k.k.k.k.k.k.k.k.k.k.k.k.k.k.k.f.k.u.* $ R ~ Q Q Q Q Q Q Q Q Q Q ",
"Q Q Q Q Q Q Q Q Q Q Q Q Q Q Q Q Q Q Q Q ^ n & ` 0.l.G.G.P.P.h.k.k.k.f.f.k.k.k.k.k.k.k.k.k.k.k.f.k.u.* # E ~ Q Q Q Q Q Q Q Q Q Q ",
"Q Q Q Q Q Q Q Q Q Q Q Q Q Q Q Q Q Q Q Q ^ E % 2 0.k.f.k.^.^.l.k.k.k.z.z.k.k.k.k.k.k.k.k.k.k.k.f.k.u.* # R ~ Q Q Q Q Q Q Q Q Q Q ",
"Q Q Q Q Q Q Q Q Q Q Q Q Q Q Q Q Q Q Q Q ~ E $ + 0.k.k.f.o.o.f.k.k.f.] ' f.k.k.k.k.k.k.k.k.k.k.f.k.0.* $ R ^ Q Q Q Q Q Q Q Q Q Q ",
"Q Q Q Q Q Q Q Q Q Q Q Q Q Q Q Q Q Q Q Q ~ E $ + 0.k.k.0.X . 0.k.k.u.o X 0.k.f.k.k.k.k.k.k.k.k.k.x.f.+ X R ^ Q Q Q Q Q Q Q Q Q Q ",
"Q Q Q Q Q Q Q Q Q Q Q Q Q Q Q Q Q Q Q Q ^ E $ % 0.k.k.0.* % 0.k.k.u.* * u.k.f.k.k.k.k.k.k.k.f.t.{ ' 5 4 E ^ Q Q Q Q Q Q Q Q Q Q ",
"Q Q Q Q Q Q Q Q Q Q Q Q Q Q Q Q Q Q Q Q ^ E X X 9.k.k.0.% + 0.k.k.u.* % u.k.f.k.k.k.k.k.k.f.x.s.. . E / Q Q Q Q Q Q Q Q Q Q Q Q ",
"Q Q Q Q Q Q Q Q Q Q Q Q Q Q Q Q Q Q Q Q ^ E = % w.j.z.w.* % w.j.j.a.* % 0.k.f.f.f.f.f.f.f.s.[ _ 4 4 E ! Q Q Q Q Q Q Q Q Q Q Q Q ",
"Q Q Q Q Q Q Q Q Q Q Q Q Q Q Q Q Q Q Q Q Q Q % < ~.^./.R.o O J././.Q.- * f.x.z.z.z.z.z.z.x.f.X . E / Q Q Q Q Q Q Q Q Q Q Q Q Q Q ",
"Q Q Q Q Q Q Q Q Q Q Q Q Q Q Q Q Q Q Q Q Q Q 0 X o.+.@...6 4 ..@.@.X.% + ` [ ] ] ] ] ] ] ] ` 7 6 R ! Q Q Q Q Q Q Q Q Q Q Q Q Q Q ",
"Q Q Q Q Q Q Q Q Q Q Q Q Q Q Q Q Q Q Q Q Q Q y , .     . W Q .       . .                   . E / Q Q Q Q Q Q Q Q Q Q Q Q Q Q Q Q ",
"Q Q Q Q Q Q Q Q Q Q Q Q Q Q Q Q Q Q Q Q Q Q ~ E 0 3 3 0 E E 0 3 4 4 3 3 4 4 4 4 4 4 4 4 3 0 Y ! Q Q Q Q Q Q Q Q Q Q Q Q Q Q Q Q ",
"Q Q Q Q Q Q Q Q Q Q Q Q Q Q Q Q Q Q Q Q Q Q Q Q / / / / Q Q / / / / / / / / / / / / / / / / Q Q Q Q Q Q Q Q Q Q Q Q Q Q Q Q Q Q ",
"Q Q Q Q Q Q Q Q Q Q Q Q Q Q Q Q Q Q Q Q Q Q Q Q Q Q Q Q Q Q Q Q Q Q Q Q Q Q Q Q Q Q Q Q Q Q Q Q Q Q Q Q Q Q Q Q Q Q Q Q Q Q Q Q ",
"Q Q Q Q Q Q Q Q Q Q Q Q Q Q Q Q Q Q Q Q Q Q Q Q Q Q Q Q Q Q Q Q Q Q Q Q Q Q Q Q Q Q Q Q Q Q Q Q Q Q Q Q Q Q Q Q Q Q Q Q Q Q Q Q ",
"Q Q Q Q Q Q Q Q Q Q Q Q Q Q Q Q Q Q Q Q Q Q Q Q Q Q Q Q Q Q Q Q Q Q Q Q Q Q Q Q Q Q Q Q Q Q Q Q Q Q Q Q Q Q Q Q Q Q Q Q Q Q Q Q ",
"Q Q Q Q Q Q Q Q Q Q Q Q Q Q Q Q Q Q Q Q Q Q Q Q Q Q Q Q Q Q Q Q Q Q Q Q Q Q Q Q Q Q Q Q Q Q Q Q Q Q Q Q Q Q Q Q Q Q Q Q Q Q Q Q ",
"Q Q Q Q Q Q Q Q Q Q Q Q Q Q Q Q Q Q Q Q Q Q Q Q Q Q Q Q Q Q Q Q Q Q Q Q Q Q Q Q Q Q Q Q Q Q Q Q Q Q Q Q Q Q Q Q Q Q Q Q Q Q Q Q ",
"Q Q Q Q Q Q Q Q Q Q Q Q Q Q Q Q Q Q Q Q Q Q Q Q Q Q Q Q Q Q Q Q Q Q Q Q Q Q Q Q Q Q Q Q Q Q Q Q Q Q Q Q Q Q Q Q Q Q Q Q Q Q Q Q "
};
