/* XPM */
static char *xpm[] = {
"64 64 9 1",
"0 c #85be8c",
"1 c #85be8c",
"2 c #85be8c",
"3 c #85be8c",
"4 c #231c19",
"5 c #d89e58",
"6 c #67332d",
"7 c #b66b3a",
"8 c #351424",
"0000111100111100000002222222222000022220001111000011110000000000",
"0000111100111100000002222222002000002220001111000011110000000000",
"0011000011000011110011000011001111001111110000111100001111111100",
"0011000011000011110011000011001111001111110000111100001111111100",
"1100000033000033001100000011110000110000330000331100003300000011",
"1100000033000033001100000011110000110000330000331100003300000011",
"1100000000000000003300000033000000330000000000003300000000000011",
"1100000000000000003300000033000000330000000000003300000000000011",
"0011330000000000000000000000000000000000000000000000000000331100",
"0011330000000000000000000000000000000000000000000000000000331100",
"0011000000000000000000000000000000000000000000000000000000001100",
"0011000000000000000000000000000000000000000000000000000000001100",
"0000113300000000000000000000000000000000000000000000000000000011",
"0000113300000000000000000000000000000000000000000000000000000011",
"0011000000000000000000000000000000000000000000000000000000000011",
"0011000000000000000000000000000000000000000000000000000000000011",
"0011330000000000000000000000000000000000000000000000000000001100",
"0011330000000000000000000000000000000000000000000000000000001100",
"1100000000000000000000444444444444444444440000000000000033110000",
"1100000000000000000000444444444444444444440000000000000033110000",
"1100000000000000000044445555555555555566444400000000000000001100",
"1100000000000000000044445555555555555566444400000000000000001100",
"0011330000000000004444555577777777777766664444000000000000001100",
"0011330000000000004444555577777777777766664444000000000000001100",
"1100000000000000444455557777777777777777666644440000000033111100",
"1100000000000000444455557777777777777777666644440000000033111100",
"1100000000000000445555777777777777777777776666440000000000000011",
"1100000000000000445555777777777777777777776666440000000000000011",
"0011000000000000447777777777777777777777777777440000000000000011",
"0011000000000000447777777777777777777777777777440000000000000011",
"0000113300000000445577777777777777777777777766440000000000001100",
"0000113300000000445577777777777777777777777766440000000000001100",
"0000110000000000445577777777777777777777777766440000000033110000",
"0000110000000000445577777777777777777777777766440000000033110000",
"0011000000000000447777777777777777777777778888440000000000001100",
"0011000000000000447777777777777777777777778888440000000000001100",
"0011330000000000445577777777777777777777777766440000000033110000",
"0011330000000000445577777777777777777777777766440000000033110000",
"1100000000000000445577777777777777777777777766440000000000001100",
"1100000000000000445577777777777777777777777766440000000000001100",
"1100000000000000447777777777777777777777777777440000000000331100",
"1100000000000000447777777777777777777777777777440000000000331100",
"0011000000000000447777777777777777777777777777440000000000000011",
"0011000000000000447777777777777777777777777777440000000000000011",
"0000113300000000447777446677777777777777777777440000000000000011",
"0000113300000000447777446677777777777777777777440000000000000011",
"0011000000000000447777444444777777777777777777440000000000331100",
"0011000000000000447777444444777777777777777777440000000000331100",
"1100000000000000447777777777777777777777777766440000000033110000",
"1100000000000000447777777777777777777777777766440000000033110000",
"1100000000000000447777777777777777777777777766440000000000001100",
"1100000000000000447777777777777777777777777766440000000000001100",
"0011113300000000445577777777777777777777778888440000000000001100",
"0011113300000000445577777777777777777777778888440000000000001100",
"0011000000000000447777777777777777777777777777440000000000331100",
"0011000000000000447777777777777777777777777777440000000000331100",
"1100000000000033445577777777777777777777777766440000003300000011",
"1100000000000033445577777777777777777777777766440000003300000011",
"1100003300000011447777777777777777777777777766443300001100000011",
"1100003300000011447777777777777777777777777766443300001100000011",
"0011111100001100044444444444444444444444444444441100001111111100",
"0011111100001100044444444444444444444444444444441100001111111100",
"0000000011110000047777777777777766666666666666400011110000000000",
"0000000011110000047777777777777766666666666666400011110000000000"
};
