/* XPM */
static char *xpm[] = {
"64 64 4 1",
"0 c None",
"1 c #85be8c",
"2 c #85be8c",
"3 c #85be8c",
"1111111111111111111111111111111111111111111111111111111111111111",
"1111111111111111111111111111111111111111111111111111111111111111",
"1111222211222211111111222211111111111111112222111122221111111111",
"1111222211222211111111222211111111111111112222111122221111111111",
"1122222233222233221122222211112222112222332222331122223322222211",
"1122222233222233221122222211112222112222332222331122223322222211",
"1122222222222222223322222233222222332222222222223322222222222211",
"1122222222222222223322222233222222332222222222223322222222222211",
"1111332222222222222222222222222222222222222222222222222222331111",
"1111332222222222222222222222222222222222222222222222222222331111",
"1111222222222222222222222222222222222222222222222222222222221111",
"1111222222222222222222222222222222222222222222222222222222221111",
"1111113322222222222222222222222222222222222222222222222222222211",
"1111113322222222222222222222222222222222222222222222222222222211",
"1111222222222222222222222222222222222222222222222222222222222211",
"1111222222222222222222222222222222222222222222222222222222222211",
"1111332222222222222222222222222222222222222222222222222222221111",
"1111332222222222222222222222222222222222222222222222222222221111",
"1122222222222222222222222222222222222222222222222222222233111111",
"1122222222222222222222222222222222222222222222222222222233111111",
"1122222222222222222222222222222222222222222222222222222222221111",
"1122222222222222222222222222222222222222222222222222222222221111",
"1111332222222222222222222222222222222222222222222222222222221111",
"1111332222222222222222222222222222222222222222222222222222221111",
"1122222222222222222222222222222222222222222222222222222233111111",
"1122222222222222222222222222222222222222222222222222222233111111",
"1122222222222222222222222222222222222222222222222222222222222211",
"1122222222222222222222222222222222222222222222222222222222222211",
"1111222222222222222222222222222222222222222222222222222222222211",
"1111222222222222222222222222222222222222222222222222222222222211",
"1111113322222222222222222222222222222222222222222222222222221111",
"1111113322222222222222222222222222222222222222222222222222221111",
"1111112222222222222222222222222222222222222222222222222233111111",
"1111112222222222222222222222222222222222222222222222222233111111",
"1111222222222222222222222222222222222222222222222222222222221111",
"1111222222222222222222222222222222222222222222222222222222221111",
"1111332222222222222222222222222222222222222222222222222233111111",
"1111332222222222222222222222222222222222222222222222222233111111",
"1122222222222222222222222222222222222222222222222222222222221111",
"1122222222222222222222222222222222222222222222222222222222221111",
"1122222222222222222222222222222222222222222222222222222222331111",
"1122222222222222222222222222222222222222222222222222222222331111",
"1111222222222222222222222222222222222222222222222222222222222211",
"1111222222222222222222222222222222222222222222222222222222222211",
"1111113322222222222222222222222222222222222222222222222222222211",
"1111113322222222222222222222222222222222222222222222222222222211",
"1111222222222222222222222222222222222222222222222222222222331111",
"1111222222222222222222222222222222222222222222222222222222331111",
"1122222222222222222222222222222222222222222222222222222233111111",
"1122222222222222222222222222222222222222222222222222222233111111",
"1122222222222222222222222222222222222222222222222222222222221111",
"1122222222222222222222222222222222222222222222222222222222221111",
"1111113322222222222222222222222222222222222222222222222222221111",
"1111113322222222222222222222222222222222222222222222222222221111",
"1111222222222222222222222222222222222222222222222222222222331111",
"1111222222222222222222222222222222222222222222222222222222331111",
"1122222222222233222222223322223322222222222233222222223322222211",
"1122222222222233222222223322223322222222222233222222223322222211",
"1122223322222211332222221122221122222233222211223322221122222211",
"1122223322222211332222221122221122222233222211223322221122222211",
"1111111122221111112222111111111111222211111111111122221111111111",
"1111111122221111112222111111111111222211111111111122221111111111",
"1111111111111111111111111111111111111111111111111111111111111111",
"1111111111111111111111111111111111111111111111111111111111111111"
};
