/* XPM */
static char *xpm[] = {
"64 64 52 1",
"0 c #85be8c",
"1 c #85be8c",
"2 c #212121",
"3 c #85be8c",
"4 c #fdd5b5",
"5 c #f9f4ea",
"6 c #d78c77",
"7 c #ffffff",
"8 c #110000",
"9 c #000000",
"a c #030306",
"b c #f8f3e9",
"c c #f6efe6",
"d c #010400",
"e c #000200",
"f c #eb9486",
"g c #000118",
"h c #01010e",
"i c #e3a266",
"j c #07030e",
"k c #0a0000",
"l c #05010e",
"m c #010208",
"n c #e6b4a0",
"o c #04041f",
"p c #e2a06b",
"q c #00050f",
"r c #040106",
"s c #e6a566",
"t c #0e0a20",
"u c #e7a464",
"v c #e8a265",
"w c #e2a366",
"x c #e4a367",
"y c #994f39",
"z c #e6a46a",
"A c #e5a969",
"B c #b4644d",
"C c #000004",
"D c #000009",
"E c #000110",
"F c #e5a86b",
"G c #af6953",
"H c #000013",
"I c #e5a86d",
"J c #b3644d",
"K c #e6a869",
"L c #e8a96a",
"M c #e3a96d",
"N c #e4aa6e",
"O c #e6a96c",
"P c #00000d",
"0000111100111100000000111100000000000000001111000011110000000000",
"0000111100111100000000111100000000000000001111000011110000000000",
"0011000011000011110011000011001111001111002222111100001111111100",
"0011000011000011110011000011001111001111222222111100001111111100",
"1100000033000033001100000011110000110022444444221100003300000011",
"1100000033000033001100000011110000110022444444221100003300000011",
"1100000000000000003300000033000000332244445544442200000000000011",
"1100000000000000003300000033000000332244445544442200000000000011",
"0011330000002222000000000000000000002244445555552200000000331100",
"0011330000002222000000000000000000002244445555552200000000331100",
"0011000000224444220000000000000000222244445555552200000000001100",
"0011000000224444220000000000000000222244445555552200000000001100",
"0000113300224466442200000000000022444422444455554422000000000011",
"0000113300224466442200000000000022444422444455554422000000000011",
"0011000000224466664422222222222244446644224455554422000000000011",
"0011000000224466664422222222222244446644224455554422000000000011",
"0011330000224466444444444444444444666644224455555544220000001100",
"0011330000224466444444444444444444666644224455555544220000001100",
"1100000000224444444444444444444444666644222244555544220033110000",
"1100000000224444444444444444444444666644222244555544220033110000",
"1100000000224444444444444444444444444444220022555544220000001100",
"1100000000224444444444444444444444444444220022555544220000001100",
"0011330000224444444444444444444444444444220022555544220000001100",
"0011330000224444444444444444444444444444220022555544220000001100",
"1100000022444477884444444477994444444444220022555544220033111100",
"1100000022444477884444444477994444444444220022555544220033111100",
"11000000224444aa9955bb55ccddee4444444444442255555522000000000011",
"11000000224444aa9955bb55ccddee4444444444442255555522000000000011",
"0011000022ffff555555gg55555555ffff444444442255555522000000000011",
"0011000022ffff555555gg55555555ffff444444442255555522000000000011",
"000011hhiihhhhhh55jj55kk555555ffff4444442222222255llhhmm00001100",
"000011hhiihhhhhh55jj55kk555555ffff4444442222222255llhhmm00001100",
"00000hiiiiiiiiiihh5555555555555555444422nnnnnnhhhhiiiiiioo110000",
"00000hiiiiiiiiiihh5555555555555555444422nnnnnnhhhhiiiiiioo110000",
"0000iiiiiiiippiiiihhhhhhqq555555552222nnhhhhhhiiiiiiiiiiiirr1100",
"000hiiiiiiiippiiiihhhhhhqq555555552222nnhhhhhhiiiiiiiiiiiirr1100",
"00iiiissiiiiiiiiiiiiiiiiii22nnnnnnnnhhhhiiiiiiiiiiiiiiiiiiiih000",
"hhiiiissiiiiiiiiiiiiiiiiii22nnnnnnnnhhhhiiiiiiiiiiiiiiiiiiiih000",
"ttiiuuiiiiiiiiiiiiiiiiiiiiiihhhhhhhhiiiiiiiiiiiiiiiiiiiiiiiih000",
"ttiiuuiiiiiiiiiiiiiiiiiiiiiihhhhhhhhiiiiiiiiiiiiiiiiiiiiiiiih000",
"hhiiiiiiiiiiiiiiiiiiiiiiiiiiiiiihhvviiwwiiiixxiiiiiiiiiiiiiih000",
"00iiiiiiiiiiiiiiiiiiiiiiiiiiiiiihhvviiwwiiiixxiiiiiiiiiiiiiih000",
"000hhhiiiiiiiiiiiiiiiiiiiiiiiihhyyhhiiiizziiiiiiiiiiiiiihhhh0011",
"0000hhiiiiiiiiiiiiiiiiiiiiiiiihhyyhhiiiizziiiiiiiiiiiiiihhhh0011",
"000011hhhhiiiiiiiiiiiiiiiiiihhAAyyBBhhiiiiiiiiiiiiiihhhhCC000011",
"000011hhhhiiiiiiiiiiiiiiiiiihhAAyyBBhhiiiiiiiiiiiiiihhhhCC000011",
"001100hhAAhhhhhhiiiiiiiiiiiihhAAyyBBBBhhhhiiiiiihhhhBBBBDD331100",
"001100hhAAhhhhhhiiiiiiiiiiiihhAAyyBBBBhhhhiiiiiihhhhBBBBDD331100",
"110000hhAAAAAAAAhhhhiiiiiihhAAAAyyBBBBBBBBhhhhhhBBBBBBBBEE110000",
"110000hhAAAAAAAAhhhhiiiiiihhAAAAyyBBBBBBBBhhhhhhBBBBBBBBEE110000",
"110000hhAAAAAAAAAAAAhhhhhhAAAAAAyyBBBBBBBBBBBBBBBBBBBBBBhh001100",
"110000hhAAAAAAAAAAAAhhhhhhAAAAAAyyBBBBBBBBBBBBBBBBBBBBBBhh001100",
"001111hhAAAAAAAAAAAAAAAAAAAAAAFFyyBBBBBBBBBBBBBBBBBBBBGGHH001100",
"001111hhAAAAAAAAAAAAAAAAAAAAAAFFyyBBBBBBBBBBBBBBBBBBBBGGHH001100",
"00110000hhAAAAAAAAAAAAAAAAAAAAIIyyBBBBBBBBJJBBBBBBBBhhhh00331100",
"00110000hhAAAAAAAAAAAAAAAAAAAAIIyyBBBBBBBBJJBBBBBBBBhhhh00331100",
"1100000000hhhhhhAAAAAAAAKKLLAAMMyyBBBBBBBBBBBBBBhhhh003300000011",
"1100000000hhhhhhAAAAAAAAKKLLAAMMyyBBBBBBBBBBBBBBhhhh003300000011",
"1100003300000011hhhhhhAAAAAAAANNyyBBBBBBBBhhhhhh3300001100000011",
"1100003300000011hhhhhhAAAAAAAANNyyBBBBBBBBhh00hh3300001100000011",
"0011111100001100110000hhhhhhAAOOyyBBBBhhhh1100111100001111111100",
"0011111100001100110000000000AAOOyyBBBB00001100111100001111111100",
"00000000111100000011110000000hhhPPhhh000000000000011110000000000",
"00000000111100000011110000000hhhPPhhh000000000000011110000000000"
};
