/* XPM */
static char *xpm[] = {
"64 64 47 1",
"0 c #85be8c",
"1 c #85be8c",
"2 c #85be8c",
"3 c #85be8c",
"4 c #2b3e42",
"5 c #6591a3",
"6 c #09344a",
"7 c #11425c",
"8 c #73a2b5",
"9 c #6593a5",
"a c #18516f",
"b c #3b7ca0",
"c c #3f8fba",
"d c #475157",
"e c #11445e",
"f c #38789b",
"g c #53a2cd",
"h c #c0d2dd",
"i c #5e8aa2",
"j c #6293ae",
"k c #8bbed9",
"l c #3683ac",
"m c #c0d9e7",
"n c #4795bf",
"o c #a6d3eb",
"p c #7db9da",
"q c #a5bcc9",
"r c #295b77",
"s c #c8d1d0",
"t c #d8e8f1",
"u c #9ecde6",
"v c #498cb0",
"w c #8fc4e2",
"x c #b5d1e0",
"y c #0e2938",
"z c #9abcc5",
"A c #bad7df",
"B c #e0e6e6",
"C c #e5eeed",
"D c #a9d3cd",
"E c #0f3950",
"F c #80a3ac",
"G c #aed3ce",
"H c #719e98",
"I c #65908b",
"J c #29403d",
"K c #233936",
"0000111100111100000000111100000000000000001111000011110000000000",
"0000111100111100000000111100000000000000001111000011110000000000",
"0011000011000011110011000011001111001111110000111100001111111100",
"0011000011000011110011000011001111001111110000111100001111111100",
"1100000022000022001100000011110000110000220000221100002200000011",
"1100000022000022001100000011110000110000220000221100002200000011",
"1100000000000000002200000022000000220000000000002200000000000011",
"1100000000000000002200000022000000220000000000002200000000000011",
"0011220000000000000000000000000000000000000000000000000000221100",
"0011220000000000000000000000000000000000000000000000000000221100",
"0011000000000000000000000000000000000000000000000000000000001100",
"0011000000000000000000000000000000000000000000000000000000001100",
"0000112200000000000000000000000000000000000000000000000000000011",
"0000112200000000000000000000000000000000000000000000000000000011",
"0011000000000000000000000000000000000000000000000000000000000011",
"0011000000000000000000000000000000000000000000000000000000000011",
"0011220000000000000000000000000000000000000000000000000000001100",
"0011220000000000000000000000000000000000000000000000000000001100",
"1100000000000000000000000000000000000000000000000000000022110000",
"1100000000000000000000000000000000000000000000000000000022110000",
"1100000000000000000000000000333300000000000000000000000000001100",
"1100000000000000000000000000333300000000000000000000000000001100",
"0011220000000000000000000000445544000000000000000000000000001100",
"0011220000000000000000000000445544000000000000000000000000001100",
"1166660000000000000000007777558899777777777700000000000022111100",
"1166660000000000000000007777558899777777777700000000000022111100",
"1166aa666600007777777777bbbbccccccccccccccbb77777777dd0000000011",
"1166aa666600007777777777bbbbccccccccccccccbb77777777dd0000000011",
"0066eeaaaa77ffbbbbccccccggggggggggggggggggggggggggbbhhdddd000011",
"0066eeaaaa77ffbbbbccccccggggggggggggggggggggggggggbbhhdddd000011",
"000066eeaaffiijjkkllmmllkkggkkggkkggkknnkknnmmmmooppmmhhqqdd1100",
"000066eeaaffiijjkkllmmllkkggkkggkkggkknnkknnmmmmooppmmhhqqdd1100",
"00001166eerrsskkttllmmllttggkknnuuggttvvmmvvmmwwppxxmmyyhhqqdd00",
"00001166eerrsskkttllmmllttggkknnuuggttvvmmvvmmwwppxxmmyyhhqqdd00",
"001166aaaa6644zzAAssttBBCCgguuvvttttCCvvCCDDDDwwppxxhhhhqqdd1100",
"001166aaaa6644zzAAssttBBCCgguuvvttttCCvvCCDDDDwwppxxhhhhqqdd1100",
"0066EEEE66000044FF44zzttAAzzssssssssGGGGDDHHHHHHHHppxxqqdd110000",
"0066EEEE66000044FF44zzttAAzzssssssssGGGGDDHHHHHHHHppxxqqdd110000",
"1166EE6600000000440044AAzz44zzGGHHHHHHHHIIIIIIIIIIdddddd00001100",
"1166EE6600000000440044AAzz44zzGGHHHHHHHHIIIIIIIIIIdddddd00001100",
"1166660000000000000044FF44004444JJJJJJJJKKKKKKKKKK00000000221100",
"1166660000000000000044FF44004444JJJJJJJJKKKKKKKKKK00000000221100",
"0011000000000000000000440000000000000000000000000000000000000011",
"0011000000000000000000440000000000000000000000000000000000000011",
"0000112200000000000000000000000000000000000000000000000000000011",
"0000112200000000000000000000000000000000000000000000000000000011",
"0011000000000000000000000000000000000000000000000000000000221100",
"0011000000000000000000000000000000000000000000000000000000221100",
"1100000000000000000000000000000000000000000000000000000022110000",
"1100000000000000000000000000000000000000000000000000000022110000",
"1100000000000000000000000000000000000000000000000000000000001100",
"1100000000000000000000000000000000000000000000000000000000001100",
"0011112200000000000000000000000000000000000000000000000000001100",
"0011112200000000000000000000000000000000000000000000000000001100",
"0011000000000000000000000000000000000000000000000000000000221100",
"0011000000000000000000000000000000000000000000000000000000221100",
"1100000000000022000000002200002200000000000022000000002200000011",
"1100000000000022000000002200002200000000000022000000002200000011",
"1100002200000011220000001100001100000022000011002200001100000011",
"1100002200000011220000001100001100000022000011002200001100000011",
"0011111100001100110000110011110011000011111100111100001111111100",
"0011111100001100110000110011110011000011111100111100001111111100",
"0000000011110000001111000000000000111100000000000011110000000000",
"0000000011110000001111000000000000111100000000000011110000000000"
};
