/* XPM */
static char *xpm[] = {
"64 64 10 1",
"0 c #85be8c",
"1 c #333c3a",
"2 c #518782",
"3 c #64a693",
"4 c #85be8c",
"5 c #4b6875",
"6 c #8c5d64",
"7 c #a2786a",
"8 c #0a0e0d",
"9 c #c29979",
"0000000000000000000000000000111110000000000000000000000000000000",
"0000000000000000000000000001222210000000000000000000000000000000",
"0000000000000000000000000001222210000000000000000000000000000000",
"0000000000000000000000000001333321100000000000000000000000000000",
"0000000000000000000000000001333332210000000000000000000000000000",
"0000000000000000000000000001333332210000000000000000000000000000",
"0000000000000000000000000113444432210000000000000000000000000000",
"0000000000000000000000001334444422210000000000000000000000000000",
"0000000000000000000000001334444422210000000000000000000000000000",
"0000000000000000000000001334442223331100000000000000000000000000",
"0000000000000000000000001113222223331100000000000000000000000000",
"0000000000000000000000001113222223331100000000000000000000000000",
"0000000000000000000000112223222234442210000000000000000000000000",
"0000000000000000000001222444333334444421100000000000000000000000",
"0000000000000000000001222444333334444421100000000000000000000000",
"0000000000000000000001224444333333344421100000000000000000000000",
"0000000000000000000001114445444433331111100000000000000000000000",
"0000000000000000000001114445444433331111100000000000000000000000",
"0000000000000000000000111555444445522210000000000000000000000000",
"0000000000000000000001222222554445522221100000000000000000000000",
"0000000000000000000001222222554445522221100000000000000000000000",
"0000000000000000000012222333225555533322210000000000000000000000",
"0000000000000000000012223333332223333322210000000000000000000000",
"0000000000000000000012223333332223333322210000000000000000000000",
"0000000000000000000011113333332233333331110000000000000000000000",
"0000000000000000000001333332333334443333321000000000000000000000",
"0000000000000000000001333332333334443333321000000000000000000000",
"0000000000000000000011333224443334444433322110000000000000000000",
"0000000000000000001122222444443333344422222110000000000000000000",
"0000000000000000001122222444443333344422222110000000000000000000",
"0000000000000000112222331444223333322212251110000000000000000000",
"0000000000000000112223112222333335522221151000000000000000000000",
"0000000000000000112223112222333335522221151000000000000000000000",
"0000000000000000111115112221333333312221125110000000000000000000",
"0000000000000000001155111112551133311111122551000000000000000000",
"0000000000000000001155111112551133311111122551000000000000000000",
"0000000000000000115555555222225511112222222555110000000000000000",
"0000000000000001555552225552222222222222255555110000000000000000",
"0000000000000001555552225552222222222222255555110000000000000000",
"0000000000000001555522222113332252223331155111110000000000000000",
"0000000000000001112222221333335555523333312110000000000000000000",
"0000000000000001112222221333335555523333312110000000000000000000",
"0000000000000000112225551333115552221133312221000000000000000000",
"0000000000000001555555221111555522222211112221000000000000000000",
"0000000000000001555555221111555522222211112221000000000000000000",
"0000000000000001555512222555555522252225522555110000000000000000",
"0000000000000001111112225555555555552225515555110000000000000000",
"0000000000000001111112225555555555552225515555110000000000000000",
"0000000000000000000015555115551151155555511111110000000000000000",
"0000000000000000000001555115551111155511110000000000000000000000",
"0000000000000000000001555115551111155511110000000000000000000000",
"0000000000000000000001111001111161111100000000000000000000000000",
"0000000000000000000000000001777767710000000000000000000000000000",
"0000000000000000000000000001777767710000000000000000000000000000",
"0000000000000000000000888119779977791188800000000000000000000000",
"0000000000000000000008881997779977779918880000000000000000000000",
"0000000000000000000008881997779977779918880000000000000000000000",
"0000000000000000000088881667669996676618888000000000000000000000",
"0000000000000000000088888888669976688888888000000000000000000000",
"0000000000000000000088888888669976688888888000000000000000000000",
"0000000000000000000008888888888888888888880000000000000000000000",
"0000000000000000000000888888888888888888800000000000000000000000",
"0000000000000000000000888888888888888888800000000000000000000000",
"0000000000000000000000000008888888880000000000000000000000000000"
};
